<?xml version="1.0" encoding="utf-8"?>
<svg id="master-artboard" viewBox="0 0 942.98193359375 940.39892578125" version="1.1" xmlns="http://www.w3.org/2000/svg" x="0px" y="0px" style="enable-background:new 0 0 1400 980;" width="942.98193359375px" height="940.39892578125px"><defs><style id="ee-google-fonts">@import url(https://fonts.googleapis.com/css?family=Adamina:400);</style></defs><rect id="ee-background" x="0" y="0" width="942.98193359375" height="940.39892578125" style="fill: white; fill-opacity: 0; pointer-events: none;"/><g transform="matrix(19.591642379760742, 0, 0, 19.591642379760742, -8.341142497059991, -6.421799659729018)"><path d="M 6 6 H 42 V 42 H 6 V 6 Z" fill="#1976d2" style="fill: rgb(246, 247, 242);"/><path d="M 27.489999771118164 22 L 14.22700023651123 22 L 14.22700023651123 25.263999938964844 L 18.983999252319336 25.263999938964844 L 18.983999252319336 40 L 22.753000259399414 40 L 22.753000259399414 25.263999938964844 L 27.489999771118164 25.263999938964844 Z" fill="#fff" style="fill: rgb(246, 247, 242);"/><path fill="#fff" d="M39.194,26.084c0,0-1.787-1.192-3.807-1.192s-2.747,0.96-2.747,1.986 c0,2.648,7.381,2.383,7.381,7.712c0,8.209-11.254,4.568-11.254,4.568V35.22c0,0,2.152,1.622,4.733,1.622s2.483-1.688,2.483-1.92 c0-2.449-7.315-2.449-7.315-7.878c0-7.381,10.658-4.469,10.658-4.469L39.194,26.084z" style="fill: rgb(246, 247, 242);"/></g><g transform="matrix(10.960991859436037, 0, 0, 10.960991859436037, 205.42553535555737, 210.98835210682319)"><path fill="#0277BD" d="M24.047,5c-1.555,0.005-2.633,0.142-3.936,0.367c-3.848,0.67-4.549,2.077-4.549,4.67V14h9v2H15.22h-4.35c-2.636,0-4.943,1.242-5.674,4.219c-0.826,3.417-0.863,5.557,0,9.125C5.851,32.005,7.294,34,9.931,34h3.632v-5.104c0-2.966,2.686-5.896,5.764-5.896h7.236c2.523,0,5-1.862,5-4.377v-8.586c0-2.439-1.759-4.263-4.218-4.672C27.406,5.359,25.589,4.994,24.047,5z M19.063,9c0.821,0,1.5,0.677,1.5,1.502c0,0.833-0.679,1.498-1.5,1.498c-0.837,0-1.5-0.664-1.5-1.498C17.563,9.68,18.226,9,19.063,9z"/><path fill="#FFC107" d="M23.078,43c1.555-0.005,2.633-0.142,3.936-0.367c3.848-0.67,4.549-2.077,4.549-4.67V34h-9v-2h9.343h4.35c2.636,0,4.943-1.242,5.674-4.219c0.826-3.417,0.863-5.557,0-9.125C41.274,15.995,39.831,14,37.194,14h-3.632v5.104c0,2.966-2.686,5.896-5.764,5.896h-7.236c-2.523,0-5,1.862-5,4.377v8.586c0,2.439,1.759,4.263,4.218,4.672C19.719,42.641,21.536,43.006,23.078,43z M28.063,39c-0.821,0-1.5-0.677-1.5-1.502c0-0.833,0.679-1.498,1.5-1.498c0.837,0,1.5,0.664,1.5,1.498C29.563,38.32,28.899,39,28.063,39z"/></g></svg>