<?xml version="1.0" encoding="utf-8"?>
<svg id="master-artboard" viewBox="0 0 943.3073120117188 940.2183837890625" version="1.1" xmlns="http://www.w3.org/2000/svg" x="0px" y="0px" style="enable-background:new 0 0 1400 980;" width="943.3073120117188px" height="940.2183837890625px"><rect id="ee-background" x="0" y="0" width="943.3073120117188" height="940.2183837890625" style="fill: white; fill-opacity: 0; pointer-events: none;"/><g transform="matrix(0.9998079506235147, 0, 0, 0.9998079506235147, 0.25324786045962355, -0.0000030350945507962024)"><rect id="rect-1" x="0" y="0" width="942.98193359375" height="940.39892578125" style="fill: white; fill-opacity: 0; pointer-events: none;"/><g transform="matrix(19.591642379760742, 0, 0, 19.591642379760742, -7.2708426524228, -6.421799659729018)"><path d="M 6 6 H 42 V 42 H 6 V 6 Z" fill="#1976d2" style="fill: rgb(254, 255, 252);"/></g></g><g transform="matrix(9.964524269104004, 0, 0, 9.964524269104004, 217.1986083984375, 215.04792378236866)"><path fill="#e64a19" d="M26,17h-8c-3.866,0-7-3.134-7-7v0c0-3.866,3.134-7,7-7h8V17z"/><path fill="#7c4dff" d="M25,31h-7c-3.866,0-7-3.134-7-7v0c0-3.866,3.134-7,7-7h7V31z"/><path fill="#66bb6a" d="M18,45L18,45c-3.866,0-7-3.134-7-7v0c0-3.866,3.134-7,7-7h7v7C25,41.866,21.866,45,18,45z"/><path fill="#ff7043" d="M32,17h-7V3h7c3.866,0,7,3.134,7,7v0C39,13.866,35.866,17,32,17z"/><path d="M 39 24 A 7 7 0 0 1 32 31 A 7 7 0 0 1 25 24 A 7 7 0 0 1 32 17 A 7 7 0 0 1 39 24 Z" fill="#29b6f6"/></g></svg>