<?xml version="1.0" encoding="utf-8"?>
<svg id="master-artboard" viewBox="0 0 942.98193359375 940.39892578125" version="1.1" xmlns="http://www.w3.org/2000/svg" x="0px" y="0px" style="enable-background:new 0 0 1400 980;" width="942.98193359375px" height="940.39892578125px"><defs><style id="ee-google-fonts">@import url(https://fonts.googleapis.com/css?family=Adamina:400);</style></defs><rect id="ee-background" x="0" y="0" width="942.98193359375" height="940.39892578125" style="fill: white; fill-opacity: 0; pointer-events: none;"/><g transform="matrix(19.591642379760742, 0, 0, 19.591642379760742, -8.341142497059991, -6.421799659729018)"><path d="M 6 6 H 42 V 42 H 6 V 6 Z" fill="#1976d2" style="fill: rgb(103, 58, 183);"/><path d="M 27.489999771118164 22 L 14.22700023651123 22 L 14.22700023651123 25.263999938964844 L 18.983999252319336 25.263999938964844 L 18.983999252319336 40 L 22.753000259399414 40 L 22.753000259399414 25.263999938964844 L 27.489999771118164 25.263999938964844 Z" fill="#fff" style="fill: rgb(103, 58, 183);"/><path fill="#fff" d="M39.194,26.084c0,0-1.787-1.192-3.807-1.192s-2.747,0.96-2.747,1.986 c0,2.648,7.381,2.383,7.381,7.712c0,8.209-11.254,4.568-11.254,4.568V35.22c0,0,2.152,1.622,4.733,1.622s2.483-1.688,2.483-1.92 c0-2.449-7.315-2.449-7.315-7.878c0-7.381,10.658-4.469,10.658-4.469L39.194,26.084z" style="fill: rgb(103, 58, 183);"/></g><g transform="matrix(10.310210227966307, 0, 0, 10.310210227966307, 217.11707589451657, 211.20612770755633)"><path fill="#673ab7" d="M42,37c0,2.762-2.238,5-5,5H11c-2.761,0-5-2.238-5-5V11c0-2.762,2.239-5,5-5h26c2.762,0,5,2.238,5,5 V37z"/><path fill="#fff" d="M33.03,25.6c-0.65-0.9-1.59-1.52-2.8-1.85c0,0,1.02-0.37,1.94-1.75c0.55-0.88,0.83-1.94,0.83-3.18 c0-2.15-0.78-3.8-2.34-4.93C29.1,12.76,27.34,12,24.35,12H15v24h10.43c2.83-0.02,4.96-0.63,6.41-1.8c1.44-1.19,2.16-2.95,2.16-5.3 C34,27.6,33.68,26.5,33.03,25.6z M21,16c0,0,4.17,0,4.25,0c1.52,0,2.75,1.23,2.75,2.75c0,1.52-1.23,2.75-2.75,2.75 c-0.08,0-4.25,0-4.25,0V16z M26,32h-5v-6h5c1.66,0,3,1.34,3,3C29,30.66,27.66,32,26,32z"/></g></svg>