<?xml version="1.0" encoding="utf-8"?>
<svg id="master-artboard" viewBox="0 0 942.98193359375 940.39892578125" version="1.1" xmlns="http://www.w3.org/2000/svg" x="0px" y="0px" style="enable-background:new 0 0 1400 980;" width="942.98193359375px" height="940.39892578125px"><defs><style id="ee-google-fonts">@import url(https://fonts.googleapis.com/css?family=Adamina:400);</style></defs><rect id="ee-background" x="0" y="0" width="942.98193359375" height="940.39892578125" style="fill: white; fill-opacity: 0; pointer-events: none;"/><g transform="matrix(19.591642379760742, 0, 0, 19.591642379760742, -8.341142497059991, -6.421799659729018)"><path d="M 6 6 H 42 V 42 H 6 V 6 Z" fill="#1976d2" style="fill: rgb(246, 247, 242);"/><path d="M 27.489999771118164 22 L 14.22700023651123 22 L 14.22700023651123 25.263999938964844 L 18.983999252319336 25.263999938964844 L 18.983999252319336 40 L 22.753000259399414 40 L 22.753000259399414 25.263999938964844 L 27.489999771118164 25.263999938964844 Z" fill="#fff" style="fill: rgb(246, 247, 242);"/><path fill="#fff" d="M39.194,26.084c0,0-1.787-1.192-3.807-1.192s-2.747,0.96-2.747,1.986 c0,2.648,7.381,2.383,7.381,7.712c0,8.209-11.254,4.568-11.254,4.568V35.22c0,0,2.152,1.622,4.733,1.622s2.483-1.688,2.483-1.92 c0-2.449-7.315-2.449-7.315-7.878c0-7.381,10.658-4.469,10.658-4.469L39.194,26.084z" style="fill: rgb(246, 247, 242);"/></g><g transform="matrix(9.58309268951416, 0, 0, 9.58309268951416, 237.6473637138971, 229.42681645067637)"><path d="M 24 4 L 7 14 L 7 34 L 24 44 L 41 34 L 41 14 Z" fill="#eceff1"/><path d="M 23.5 24.5 L 23.5 33.5 L 15 29 L 15 19.5 Z" fill="#0277bd"/><path d="M 24.5 24.5 L 24.5 33.5 L 33 29 L 33 19.5 Z" fill="#0277bd"/><path d="M 24 23.5 L 15.5 18.5 L 24 14 L 32.5 18.5 Z" fill="#0277bd"/><g><path d="M 23.5 7 L 23.5 13 L 14.5 18 L 9.5 15 Z" fill="#81d4fa"/><path d="M 23.5 41 L 23.5 35 L 14.5 30 L 9.5 33 Z" fill="#81d4fa"/><path d="M 14 19 L 9 16 L 9 32 L 14 29 Z" fill="#81d4fa"/><path d="M 24.5 7 L 24.5 13 L 33.5 18 L 38.5 15 Z" fill="#81d4fa"/><path d="M 24.5 41 L 24.5 35 L 33.5 30 L 38.5 33 Z" fill="#81d4fa"/><path d="M 34 19 L 39 16 L 39 32 L 34 29 Z" fill="#81d4fa"/></g></g></svg>