<?xml version="1.0" encoding="utf-8"?>
<svg id="master-artboard" viewBox="0 0 942.98193359375 940.39892578125" version="1.1" xmlns="http://www.w3.org/2000/svg" x="0px" y="0px" style="enable-background:new 0 0 1400 980;" width="942.98193359375px" height="940.39892578125px"><defs><style id="ee-google-fonts">@import url(https://fonts.googleapis.com/css?family=Adamina:400);</style></defs><rect id="ee-background" x="0" y="0" width="942.98193359375" height="940.39892578125" style="fill: white; fill-opacity: 0; pointer-events: none;"/><g transform="matrix(19.591642379760742, 0, 0, 19.591642379760742, -8.341142497059991, -6.421799659729018)"><path d="M 6 6 H 42 V 42 H 6 V 6 Z" fill="#1976d2" style="fill: rgb(243, 246, 248);"/><path d="M 27.489999771118164 22 L 14.22700023651123 22 L 14.22700023651123 25.263999938964844 L 18.983999252319336 25.263999938964844 L 18.983999252319336 40 L 22.753000259399414 40 L 22.753000259399414 25.263999938964844 L 27.489999771118164 25.263999938964844 Z" fill="#fff" style="fill: rgb(243, 246, 248);"/><path fill="#fff" d="M39.194,26.084c0,0-1.787-1.192-3.807-1.192s-2.747,0.96-2.747,1.986 c0,2.648,7.381,2.383,7.381,7.712c0,8.209-11.254,4.568-11.254,4.568V35.22c0,0,2.152,1.622,4.733,1.622s2.483-1.688,2.483-1.92 c0-2.449-7.315-2.449-7.315-7.878c0-7.381,10.658-4.469,10.658-4.469L39.194,26.084z" style="fill: rgb(243, 246, 248);"/></g><g transform="matrix(9.421009063720703, 0, 0, 9.421009063720703, 235.37824293113022, 235.62644958496094)"><path fill="#F4511E" d="M42.2,22.1L25.9,5.8C25.4,5.3,24.7,5,24,5c0,0,0,0,0,0c-0.7,0-1.4,0.3-1.9,0.8l-3.5,3.5l4.1,4.1c0.4-0.2,0.8-0.3,1.3-0.3c1.7,0,3,1.3,3,3c0,0.5-0.1,0.9-0.3,1.3l4,4c0.4-0.2,0.8-0.3,1.3-0.3c1.7,0,3,1.3,3,3s-1.3,3-3,3c-1.7,0-3-1.3-3-3c0-0.5,0.1-0.9,0.3-1.3l-4-4c-0.1,0-0.2,0.1-0.3,0.1v10.4c1.2,0.4,2,1.5,2,2.8c0,1.7-1.3,3-3,3s-3-1.3-3-3c0-1.3,0.8-2.4,2-2.8V18.8c-1.2-0.4-2-1.5-2-2.8c0-0.5,0.1-0.9,0.3-1.3l-4.1-4.1L5.8,22.1C5.3,22.6,5,23.3,5,24c0,0.7,0.3,1.4,0.8,1.9l16.3,16.3c0,0,0,0,0,0c0.5,0.5,1.2,0.8,1.9,0.8s1.4-0.3,1.9-0.8l16.3-16.3c0.5-0.5,0.8-1.2,0.8-1.9C43,23.3,42.7,22.6,42.2,22.1z"/></g></svg>