<?xml version="1.0" encoding="utf-8"?>
<svg id="master-artboard" viewBox="0 0 942.98193359375 940.39892578125" version="1.1" xmlns="http://www.w3.org/2000/svg" x="0px" y="0px" style="enable-background:new 0 0 1400 980;" width="942.98193359375px" height="940.39892578125px"><defs><style id="ee-google-fonts">@import url(https://fonts.googleapis.com/css?family=Adamina:400);</style></defs><rect id="ee-background" x="0" y="0" width="942.98193359375" height="940.39892578125" style="fill: white; fill-opacity: 0; pointer-events: none;"/><g transform="matrix(19.591642379760742, 0, 0, 19.591642379760742, -8.341142497059991, -6.421799659729018)"><path d="M 6 6 H 42 V 42 H 6 V 6 Z" fill="#1976d2" style="fill: rgb(240, 245, 240);"/><path d="M 27.489999771118164 22 L 14.22700023651123 22 L 14.22700023651123 25.263999938964844 L 18.983999252319336 25.263999938964844 L 18.983999252319336 40 L 22.753000259399414 40 L 22.753000259399414 25.263999938964844 L 27.489999771118164 25.263999938964844 Z" fill="#fff" style="fill: rgb(240, 245, 240);"/><path fill="#fff" d="M39.194,26.084c0,0-1.787-1.192-3.807-1.192s-2.747,0.96-2.747,1.986 c0,2.648,7.381,2.383,7.381,7.712c0,8.209-11.254,4.568-11.254,4.568V35.22c0,0,2.152,1.622,4.733,1.622s2.483-1.688,2.483-1.92 c0-2.449-7.315-2.449-7.315-7.878c0-7.381,10.658-4.469,10.658-4.469L39.194,26.084z" style="fill: rgb(240, 245, 240);"/></g><g transform="matrix(6.542032241821289, 0, 0, 6.542032241821289, 304.4737210913456, 313.9605808769826)"><path d="M 33 24 A 9 9 0 0 1 24 33 A 9 9 0 0 1 15 24 A 9 9 0 0 1 24 15 A 9 9 0 0 1 33 24 Z" fill="#448aff"/><path d="M 41 11 A 4 4 0 0 1 37 15 A 4 4 0 0 1 33 11 A 4 4 0 0 1 37 7 A 4 4 0 0 1 41 11 Z" fill="#448aff"/><path fill="#448aff" d="M41.706,14.715c-0.842,1.064-2.034,1.836-3.405,2.139C39.379,19.007,40,21.429,40,24&#9;c0,8.837-7.163,16-16,16S8,32.837,8,24S15.163,8,24,8c2.571,0,4.993,0.621,7.145,1.699c0.303-1.371,1.075-2.564,2.139-3.405&#9;C30.509,4.835,27.354,4,24,4C12.954,4,4,12.954,4,24c0,11.046,8.954,20,20,20s20-8.954,20-20C44,20.646,43.165,17.491,41.706,14.715&#9;z"/></g></svg>