<?xml version="1.0" encoding="utf-8"?>
<svg id="master-artboard" viewBox="0 0 942.98193359375 940.39892578125" version="1.1" xmlns="http://www.w3.org/2000/svg" x="0px" y="0px" style="enable-background:new 0 0 1400 980;" width="942.98193359375px" height="940.39892578125px"><rect id="ee-background" x="0" y="0" width="942.98193359375" height="940.39892578125" style="fill: white; fill-opacity: 0; pointer-events: none;"/><g transform="matrix(19.591642379760742, 0, 0, 19.591642379760742, -7.2708426524228, -6.421799659729018)"><path d="M 6 6 H 42 V 42 H 6 V 6 Z" fill="#1976d2" style="fill: rgb(255, 19, 15);"/><path d="M 27.489999771118164 22 L 14.22700023651123 22 L 14.22700023651123 25.263999938964844 L 18.983999252319336 25.263999938964844 L 18.983999252319336 40 L 22.753000259399414 40 L 22.753000259399414 25.263999938964844 L 27.489999771118164 25.263999938964844 Z" fill="#fff" style="fill: rgb(255, 19, 15);"/><path fill="#fff" d="M39.194,26.084c0,0-1.787-1.192-3.807-1.192s-2.747,0.96-2.747,1.986 c0,2.648,7.381,2.383,7.381,7.712c0,8.209-11.254,4.568-11.254,4.568V35.22c0,0,2.152,1.622,4.733,1.622s2.483-1.688,2.483-1.92 c0-2.449-7.315-2.449-7.315-7.878c0-7.381,10.658-4.469,10.658-4.469L39.194,26.084z" style="fill: rgb(255, 19, 15);"/></g><g transform="matrix(20.60330200195313, 0, 0, 20.60330200195313, 134.85885446070262, 131.9677608823749)"><path d="M 16 3.9355469 L 4.3613281 8.1679688 L 6.4492188 23.839844 L 16 29.144531 L 25.550781 23.837891 L 27.638672 8.1679688 L 16 3.9355469 z M 16 6.0644531 L 25.443359 9.4980469 L 23.699219 22.578125 L 16 26.855469 L 8.3007812 22.578125 L 6.5566406 9.4980469 L 16 6.0644531 z M 16 8 L 10 22 L 12 22 L 13.289062 19 L 18.710938 19 L 20 22 L 22 22 L 16 8 z M 16 12.550781 L 16.019531 12.609375 L 16.720703 14.359375 L 17.849609 17 L 14.150391 17 L 15.279297 14.359375 L 15.980469 12.609375 L 16 12.550781 z" style="paint-order: fill; fill: rgb(255, 254, 250);"/></g></svg>