<?xml version="1.0" encoding="utf-8"?>
<svg id="master-artboard" viewBox="0 0 942.98193359375 940.39892578125" version="1.1" xmlns="http://www.w3.org/2000/svg" x="0px" y="0px" style="enable-background:new 0 0 1400 980;" width="942.98193359375px" height="940.39892578125px"><defs><style id="ee-google-fonts">@import url(https://fonts.googleapis.com/css?family=Adamina:400);</style></defs><rect id="ee-background" x="0" y="0" width="942.98193359375" height="940.39892578125" style="fill: white; fill-opacity: 0; pointer-events: none;"/><g transform="matrix(19.591642379760742, 0, 0, 19.591642379760742, -8.341142497059991, -6.421799659729018)"><path d="M 6 6 H 42 V 42 H 6 V 6 Z" fill="#1976d2" style="fill: rgb(255, 255, 250);"/><path d="M 27.489999771118164 22 L 14.22700023651123 22 L 14.22700023651123 25.263999938964844 L 18.983999252319336 25.263999938964844 L 18.983999252319336 40 L 22.753000259399414 40 L 22.753000259399414 25.263999938964844 L 27.489999771118164 25.263999938964844 Z" fill="#fff" style="fill: rgb(255, 255, 250);"/><path fill="#fff" d="M39.194,26.084c0,0-1.787-1.192-3.807-1.192s-2.747,0.96-2.747,1.986 c0,2.648,7.381,2.383,7.381,7.712c0,8.209-11.254,4.568-11.254,4.568V35.22c0,0,2.152,1.622,4.733,1.622s2.483-1.688,2.483-1.92 c0-2.449-7.315-2.449-7.315-7.878c0-7.381,10.658-4.469,10.658-4.469L39.194,26.084z" style="fill: rgb(255, 255, 250);"/></g><g transform="matrix(7.978473186492919, 0, 0, 7.978473186492919, 270.95690228200624, 273.29864198009204)"><path d="M47.49,4.67l-3.41-3.21l-1.47-1.39l-1.37,1.49L38.99,4h-8c-0.02,0-0.04,0-0.06,0.01C30.91,4,30.9,4,30.88,4H9 C6.24,4,4,6.24,4,9v32c0,2.76,2.24,5,5,5h32c2.76,0,5-2.24,5-5V9.22l1.6-1.74l1.33-1.46L47.49,4.67z M14.45,40 c-3.72,0-6.27-1.98-6.45-5h2.55c0.27,1.64,1.81,2.62,4.09,2.62c2.09,0,3.63-1.09,3.63-2.65c0-1.37-0.91-2.1-3.18-2.65l-2.18-0.54 c-3-0.73-4.46-2.29-4.46-4.75c0-3.02,2.46-5.03,6.19-5.03c3.45,0,6,2.01,6.09,4.93h-2.55c-0.27-1.55-1.63-2.55-3.63-2.55 c-2.1,0-3.46,1-3.46,2.55c0,1.28,0.91,1.92,3.09,2.47l1.91,0.46C19.55,30.68,21,32.14,21,34.7C21,37.99,18.45,40,14.45,40z M36,34 h-9.38v0.13c0.1,2.12,1.5,3.75,3.57,3.75c1.5,0,2.62-0.53,3.09-1.5h2.53C35.25,38.67,33.09,40,30.09,40C26.34,40,24,37.52,24,33.54 S26.34,27,30.09,27c3.66,0,5.91,2.39,5.91,6.28V34z M29.73,24L19,13.8l3.23-3.4l7.31,6.8L42.71,2.91l3.41,3.21L29.73,24z M30.09,29.05c-1.85,0-3.12,1.18-3.34,2.95h6.59C33.14,30.16,31.95,29.05,30.09,29.05z" style="fill: rgb(0, 180, 0);"/></g></svg>